<svg width="700pt" height="700pt" version="1" viewBox="0 0 700 700" xmlns="http://www.w3.org/2000/svg"><path d="M286 59.7c-1.8.7-4.3 2.5-5.6 4-3 3.5-3.1 3.9-6.9 32.3-.8 6.3-1.7 12.6-1.9 14-.3 1.4-.7 4.7-1.1 7.5-.3 2.7-1.1 8.1-1.6 12-.6 3.8-1.3 9-1.6 11.5-.7 6.4-1.4 7.2-9 10.4-8.5 3.7-23.3 12.2-32.1 18.4-3.7 2.7-7.3 5.1-8 5.6-1.1.7-7.8-1.4-15.7-4.9-12.2-5.3-59.7-23.6-62.2-23.9-2-.3-4.9.4-7.5 1.7-3.8 1.9-5.3 3.8-12.5 16.2-4.5 7.7-8.8 15.1-9.5 16.5s-1.5 2.7-1.8 3-1.2 1.9-2.1 3.5c-.9 1.7-10.3 18.1-21 36.5-18 31.1-19.4 33.8-19.3 38.2.1 2.6.8 5.8 1.7 7.1.9 1.4 6.9 6.6 13.4 11.6s12.5 9.7 13.3 10.4c.8.6 5.1 3.9 9.5 7.2s8.5 6.5 9.2 7.1c.6.6 5.2 4.2 10.3 8l9.1 6.9-.8 9c-.9 11.2-.9 30.5.1 41l.7 8-5.1 4c-2.9 2.2-10.1 7.8-16 12.5s-12.5 9.8-14.6 11.5c-5.2 4.1-17.9 14.1-23.2 18.3s-7.1 6.9-7.7 11.3c-.6 4.5.4 6.8 10.5 24.4 26.4 45.6 39.1 67.5 41.6 72 9.7 17.6 13.7 21.4 21.2 20.9 3-.2 23.3-7.9 41.7-15.9 1.7-.7 5.5-2.2 8.5-3.4s6.4-2.6 7.5-3.1 5.9-2.4 10.7-4.3l8.6-3.5 7.6 5.4c11.9 8.4 15.2 10.4 29.1 17.4l12.9 6.6 1.8 12.5c.9 6.8 2 14.6 2.3 17.4.3 2.7 1 7.5 1.5 10.5s1.1 7.3 1.4 9.5c1.5 13.8 4 28.5 5.3 31.2.8 1.8 3.2 4.3 5.2 5.5l3.6 2.3 61.7.1c67.8.1 66.1.2 70.9-5.9 2-2.7 3.8-11.8 6.4-31.7.3-3 .8-6.4 1-7.5 1-6.9 1.6-11 2.1-14.8.3-2.3 1-7.1 1.5-10.7.6-3.6 1.3-8.8 1.6-11.5.2-2.8.6-5.5.6-6 .1-.6 4.9-3.3 10.7-6.1 11.4-5.5 22.8-12.3 32.8-19.6l6.4-4.6 3.6 1.5c3.4 1.3 12.6 5.1 25.7 10.5 2.8 1.2 7 2.9 9.5 3.8 2.5 1 11.3 4.6 19.5 8 22.6 9.4 26.1 8.7 35.2-6.4 2.9-4.9 5.3-9 5.3-9.1s5.5-9.6 12.1-21.1c39.7-68.4 39.2-67.6 39.2-72.5-.1-2.6-.6-5.6-1.2-6.8-1-1.8-11-10.2-25.2-21.2-1.9-1.5-10.4-8.2-18.9-14.9s-16.7-13.2-18.3-14.4c-2.7-2.1-2.7-2.2-2-10.1.8-8.6.9-27.8.2-41.6l-.4-8.6 30.9-23.9c17-13.2 31.8-25.1 32.8-26.5 1.3-1.8 2-4.3 2.1-7.6 0-4.7-1.2-7-21.3-41.9-11.8-20.3-22.1-38.2-22.9-39.7-.9-1.6-2-3.6-2.6-4.6-.5-.9-4.1-6.9-7.8-13.4-3.8-6.4-8.1-12.6-9.7-13.7-6.1-4.3-8.5-3.7-48.7 12.4L483 176.3l-5.7-4.1c-9.2-6.6-21.1-13.7-30.3-18.1-13.2-6.4-13.3-6.5-13.6-8.6-.3-1.7-1.1-8.1-1.9-13.5-.5-4.1-1.9-13.6-2-14-.1-.3-.5-3.4-.9-7-.5-3.6-1-7.4-1.2-8.4-.2-1.1-.8-5.6-1.4-10-.6-4.5-1.3-9.2-1.5-10.6s-.7-4.7-1.1-7.5c-1.1-8.3-3.2-11.9-8.9-14.7-4.3-2.2-123.5-2.3-128.5-.1zM375 251c17.1 4.4 34 14.1 47 26.9 12.8 12.6 22.6 30 27.1 47.6 2.8 11.2 3.5 31.3 1.4 42.5-9.2 48.7-51.4 84-100.5 83.8-8.5 0-13.2-.5-22.4-2.2-15.2-2.8-34.7-13.4-47.8-25.8-41.6-39.6-42.5-105.1-1.8-145.8 10.8-10.9 22.8-18.6 37.4-24.1 5.9-2.2 6.7-2.4 17.1-4.4 10.3-2 31.7-1.2 42.5 1.5z"/><path d="M336 278.5c-26.4 5.4-47.6 24.6-55.7 50.2-3.3 10.6-4 26.2-1.7 36.3 5.9 25.1 22.6 44.4 46.4 53.4 8.7 3.2 11.6 3.7 24 4.1 32.5.9 60.8-19.9 71-52 4.4-13.8 3.4-33.2-2.5-47.7-13.1-32.3-47.9-51.2-81.5-44.3z"/></svg>